<svg width="32" height="40" viewBox="0 0 32 40" fill="none" xmlns="http://www.w3.org/2000/svg">
<path d="M11.9213 24.286C11.9238 24.2862 11.9262 24.2869 11.9286 24.2869C11.9336 24.2871 11.9386 24.289 11.9436 24.289C11.9438 24.289 11.944 24.2889 11.9441 24.2889C11.9443 24.2889 11.9445 24.289 11.9447 24.289C11.9479 24.289 11.951 24.2877 11.9542 24.2877C11.9674 24.2878 11.98 24.2897 11.9931 24.2897H11.9933H11.9934H11.9934C15.9726 24.2897 19.2098 21.0525 19.2098 17.0732C19.2098 13.0939 15.9726 9.8567 11.9934 9.8567C11.9859 9.8567 11.9787 9.8578 11.9712 9.85787C11.9622 9.8574 11.9531 9.85873 11.9441 9.85873C11.9266 9.85881 11.9095 9.85967 11.8922 9.86139C11.8823 9.86233 11.8723 9.86186 11.8624 9.86334C7.94407 9.93428 4.77696 13.1381 4.77696 17.0732C4.77696 21.0281 7.97563 24.2467 11.9213 24.286ZM6.38008 19.5404H8.01969C8.40055 20.7838 9.06555 21.9195 9.97446 22.8603C8.36688 22.2976 7.06297 21.0878 6.38008 19.5404ZM18.1287 17.0731C18.1287 17.5504 18.0684 18.013 17.9649 18.4593H16.1189C16.1946 18.0023 16.2376 17.5354 16.2376 17.0598C16.2376 16.594 16.1956 16.1362 16.1216 15.6873H17.965C18.0685 16.1335 18.1287 16.596 18.1287 17.0731ZM15.1565 17.0865C15.1565 17.5535 15.1117 18.0125 15.0266 18.4594H12.5338V15.6874H15.0242C15.1112 16.1419 15.1565 16.6098 15.1565 17.0865ZM9.16172 19.5404H11.4527V22.7458C10.3937 21.8998 9.60977 20.7923 9.16172 19.5404ZM12.5338 22.6626V19.5403H14.7295C14.2961 20.7497 13.5445 21.826 12.5338 22.6626ZM12.5338 14.6063V11.4838C13.5424 12.3189 14.2929 13.394 14.7267 14.6063H12.5338ZM11.4527 11.4005V14.6063H9.15875C9.60626 13.3573 10.3913 12.2481 11.4527 11.4005ZM11.4527 15.6873V18.4593H8.86399C8.77704 18.0046 8.73172 17.5367 8.73172 17.0598C8.73172 16.593 8.77649 16.134 8.86157 15.6873H11.4527ZM7.7668 18.4593H6.0218C5.91821 18.013 5.85797 17.5504 5.85797 17.0731C5.85797 16.5959 5.91813 16.1334 6.02172 15.6873H7.76938C7.69375 16.1442 7.65078 16.611 7.65078 17.0865C7.65078 17.5523 7.69289 18.0104 7.7668 18.4593ZM13.8537 22.9184C14.7901 21.9677 15.4762 20.8129 15.8656 19.5403H17.6066C16.9011 21.1391 15.5349 22.382 13.8537 22.9184ZM17.6067 14.6063H15.8687C15.4799 13.3365 14.7929 12.1805 13.8544 11.2281C15.5354 11.7646 16.9014 13.0076 17.6067 14.6063ZM9.97501 11.2858C9.06805 12.2251 8.40391 13.36 8.0225 14.6063H6.37993C7.06282 13.0585 8.36704 11.8485 9.97501 11.2858ZM31.0219 7.09631C30.6515 6.37842 30.0262 5.84881 29.2611 5.60459L12.1584 0.143806C11.3938 -0.101117 10.577 -0.031429 9.85915 0.339431C9.14141 0.709665 8.61165 1.33498 8.36743 2.09998L7.23235 5.65459H3.01672C1.35328 5.65459 0 7.00803 0 8.67147V36.9835C0 38.647 1.35328 40 3.01672 40H20.9699C22.6334 40 23.9867 38.647 23.9867 36.9835V32.0419L31.2174 9.39569C31.4616 8.631 31.3923 7.8142 31.0219 7.09631ZM22.9056 36.9835C22.9056 38.0509 22.0372 38.919 20.9699 38.919H3.01672C1.94938 38.919 1.08109 38.0509 1.08109 36.9835V8.67147C1.08109 7.60412 1.94945 6.73568 3.01672 6.73568H20.9699C22.0373 6.73568 22.9056 7.6042 22.9056 8.67147V36.9835ZM30.1877 9.06701L23.9867 28.4883V8.67147C23.9867 7.00803 22.6334 5.65459 20.9699 5.65459H8.36688L9.39704 2.42873C9.55344 1.93888 9.8936 1.53803 10.3548 1.29982C10.8158 1.06193 11.3394 1.01724 11.8298 1.17349L28.9324 6.63436C29.4223 6.79092 29.8233 7.13092 30.0612 7.59225C30.2991 8.05319 30.3441 8.57717 30.1877 9.06701ZM19.2845 28.4685C19.2845 28.7669 19.0425 29.0091 18.7439 29.0091H5.2425C4.94391 29.0091 4.70196 28.7669 4.70196 28.4685C4.70196 28.1701 4.94391 27.928 5.2425 27.928H18.744C19.0426 27.928 19.2845 28.1701 19.2845 28.4685ZM19.2845 32.2841C19.2845 32.5826 19.0425 32.8247 18.7439 32.8247H5.2425C4.94391 32.8247 4.70196 32.5826 4.70196 32.2841C4.70196 31.9857 4.94391 31.7436 5.2425 31.7436H18.744C19.0426 31.7437 19.2845 31.9858 19.2845 32.2841ZM16.2222 36.0998C16.2222 36.3983 15.9802 36.6404 15.6816 36.6404H8.30485C8.00626 36.6404 7.7643 36.3983 7.7643 36.0998C7.7643 35.8014 8.00626 35.5593 8.30485 35.5593H15.6816C15.9803 35.5593 16.2222 35.8014 16.2222 36.0998Z" fill="black"/>
</svg>
