<svg width="17" height="17" viewBox="0 0 17 17" fill="none" xmlns="http://www.w3.org/2000/svg">
<path d="M8.0704 16C6.38028 14.1392 4.08821 12.934 1.59727 12.5961C1.31374 12.5648 1.05189 12.4295 0.862242 12.2164C0.672596 12.0033 0.568603 11.7275 0.570334 11.4423V2.15372C0.570323 1.98705 0.606417 1.82237 0.676132 1.67098C0.745848 1.5196 0.84753 1.38512 0.974184 1.27679C1.09861 1.17043 1.24423 1.09175 1.4014 1.046C1.55856 1.00024 1.72366 0.988447 1.88573 1.0114C4.26763 1.40672 6.4466 2.59377 8.0704 4.38066V16Z" stroke="#EE478F" stroke-linecap="round" stroke-linejoin="round"/>
<path d="M8.07031 16C9.76044 14.1392 12.0525 12.934 14.5434 12.5961C14.827 12.5648 15.0888 12.4295 15.2785 12.2164C15.4681 12.0033 15.5721 11.7275 15.5704 11.4423V2.15372C15.5704 1.98705 15.5343 1.82237 15.4646 1.67098C15.3949 1.5196 15.2932 1.38512 15.1665 1.27679C15.0421 1.17043 14.8965 1.09175 14.7393 1.046C14.5822 1.00024 14.4171 0.988447 14.255 1.0114C11.8731 1.40672 9.69411 2.59377 8.07031 4.38066V16Z" stroke="#EE478F" stroke-linecap="round" stroke-linejoin="round"/>
</svg>
