<svg width="19" height="17" viewBox="0 0 19 17" fill="none" xmlns="http://www.w3.org/2000/svg">
<path d="M4.31641 6.97967L7.63212 1.67975C7.76062 1.47027 7.94119 1.29764 8.15623 1.17868C8.37127 1.05973 8.61346 0.99849 8.8592 1.00094V1.00094C9.05273 0.993957 9.24571 1.02584 9.42672 1.09471C9.60772 1.16357 9.77309 1.26802 9.91304 1.40189C10.053 1.53576 10.1647 1.69632 10.2415 1.87409C10.3184 2.05186 10.3588 2.24322 10.3604 2.43688V6.23559H16.0911C16.3029 6.24246 16.5108 6.29407 16.7011 6.38703C16.8915 6.48 17.0601 6.6122 17.1957 6.77496C17.3313 6.93772 17.431 7.12735 17.4881 7.33137C17.5452 7.5354 17.5585 7.7492 17.527 7.95872L16.4827 14.6946C16.4382 15.0546 16.2637 15.3859 15.9921 15.6263C15.7204 15.8666 15.3704 15.9995 15.0076 16H6.44421C6.03656 16.0016 5.63419 15.9077 5.26935 15.7258L4.32946 15.2559" stroke="#000001" stroke-linecap="round" stroke-linejoin="round"/>
<path d="M4.31641 6.97949V15.2166" stroke="#000001" stroke-linecap="round" stroke-linejoin="round"/>
<path d="M1.22301 6.97949H4.31681V15.2166H1.22301C1.04991 15.2166 0.883889 15.1478 0.761484 15.0254C0.639079 14.903 0.570313 14.737 0.570312 14.5639V7.63219C0.570312 7.45909 0.639079 7.29307 0.761484 7.17066C0.883889 7.04826 1.04991 6.97949 1.22301 6.97949V6.97949Z" stroke="#000001" stroke-linecap="round" stroke-linejoin="round"/>
</svg>
