<svg width="19" height="15" viewBox="0 0 19 15" fill="none" xmlns="http://www.w3.org/2000/svg">
<path fill-rule="evenodd" clip-rule="evenodd" d="M13.2184 0.999089C12.1809 1.0737 10.963 1.64722 9.71592 3.0764C9.62214 3.18387 9.48656 3.24569 9.34392 3.24602C9.20127 3.24635 9.06542 3.18515 8.97114 3.07811C7.22998 1.10117 5.53947 0.761403 4.26804 1.15023C2.95914 1.55052 1.94515 2.76233 1.65213 4.17571C1.5966 4.44353 1.33449 4.61562 1.06667 4.5601C0.79886 4.50458 0.626763 4.24246 0.682286 3.97465C1.03873 2.25533 2.27874 0.722853 3.97838 0.20307C5.60375 -0.294 7.52279 0.168142 9.341 2.0214C10.5986 0.726385 11.9058 0.100457 13.1473 0.0111762C14.5118 -0.0869513 15.7191 0.469451 16.5947 1.35124C18.3216 3.09035 18.8524 6.22166 16.7242 8.37131C16.7189 8.37665 16.7135 8.38187 16.708 8.38696L9.67849 14.8688C9.48834 15.0442 9.19528 15.0437 9.00576 14.8676L4.8925 11.0473C4.6921 10.8611 4.68053 10.5478 4.86666 10.3474C5.05279 10.147 5.36615 10.1354 5.56655 10.3215L9.344 13.83L16.028 7.66668C17.6859 5.9833 17.3178 3.48508 15.8919 2.04914C15.19 1.34229 14.2555 0.924504 13.2184 0.999089Z" fill="#000001"/>
<path fill-rule="evenodd" clip-rule="evenodd" d="M6.19013 4.45946C6.35656 4.46982 6.50661 4.56324 6.58934 4.70803L8.76231 8.51071L10.2203 6.56677C10.3138 6.44207 10.4606 6.36868 10.6164 6.36868H12.5266C12.8001 6.36868 13.0219 6.5904 13.0219 6.86391C13.0219 7.13742 12.8001 7.35914 12.5266 7.35914H10.8641L9.10245 9.70796C9.0024 9.84136 8.84193 9.91546 8.6755 9.90509C8.50906 9.89473 8.35902 9.80131 8.27629 9.65652L6.10332 5.85384L4.64536 7.79778C4.55184 7.92248 4.40506 7.99587 4.24918 7.99587H1.06554C0.792035 7.99587 0.570312 7.77415 0.570312 7.50064C0.570312 7.22713 0.792035 7.00541 1.06554 7.00541H4.00156L5.76317 4.65659C5.86323 4.52319 6.0237 4.44909 6.19013 4.45946Z" fill="#000001"/>
</svg>
