<svg width="78" height="78" viewBox="0 0 78 78" fill="none" xmlns="http://www.w3.org/2000/svg">
<circle cx="39" cy="39" r="39" fill="#EF5388"/>
<g clip-path="url(#clip0_1969_1756)">
<mask id="mask0_1969_1756" style="mask-type:luminance" maskUnits="userSpaceOnUse" x="32" y="24" width="21" height="29">
<path d="M51.0024 25.0643L40.5829 47.271L40.253 47.9758C39.0177 50.6091 35.581 51.7224 32.9219 50.5533C33.606 51.814 35.2593 52.7155 36.8005 52.7155C36.8386 52.7155 36.8794 52.7155 36.9175 52.7124C36.9316 52.7124 36.9446 52.7124 36.9587 52.7094C37.3263 52.6857 37.6872 52.6197 38.0386 52.5222C38.0499 52.5191 38.058 52.5174 38.0658 52.5143C38.0897 52.5065 38.1119 52.4983 38.1341 52.4925C39.5418 52.072 40.7693 51.0781 41.4393 49.646L52.6194 25.8153C52.6226 25.8101 52.6243 25.8043 52.6243 25.7992C52.6797 25.6829 52.7036 25.56 52.7036 25.4386C52.7036 25.105 52.5133 24.7855 52.1887 24.6329C52.0671 24.5771 51.9392 24.5508 51.8134 24.5508C51.4761 24.5508 51.1532 24.7407 51.0024 25.0643Z" fill="white"/>
</mask>
<g mask="url(#mask0_1969_1756)">
<path d="M52.7036 24.5508H32.9219V52.7158H52.7036V24.5508Z" fill="white"/>
</g>
<mask id="mask1_1969_1756" style="mask-type:luminance" maskUnits="userSpaceOnUse" x="21" y="20" width="36" height="37">
<path d="M34.0944 46.3252C34.0831 46.3224 34.0753 46.3163 34.0641 46.3142C34.0362 46.306 34.0119 46.2951 33.9851 46.2814C33.9661 46.2763 33.9439 46.2653 33.9249 46.2575C33.8699 46.2356 33.8156 46.2075 33.7635 46.1788C33.7504 46.1726 33.7367 46.1647 33.7226 46.1569C33.7014 46.1428 33.6796 46.1329 33.6605 46.122C33.0572 45.7819 32.5504 45.2626 32.2367 44.59L32.1112 44.3241L31.1314 42.2365L31.1265 42.2256L24.0326 27.1028C23.2308 25.3901 23.9755 23.3539 25.6989 22.5543C26.1676 22.3371 26.6618 22.2334 27.1496 22.2334C28.4451 22.2334 29.6896 22.9625 30.2729 24.2105L34.9258 34.1272L35.9109 36.2258L37.2717 39.1273L38.3568 41.4417L38.046 42.1061L37.0863 44.151L36.9499 44.4438L35.9207 42.2526L35.8636 42.125L34.9829 40.2467L34.5032 39.2269L33.5181 37.1262L27.8209 24.9803C27.6704 24.6577 27.349 24.4685 27.0131 24.4685C26.8852 24.4685 26.7569 24.4952 26.6346 24.5519C26.1867 24.7572 25.9932 25.2872 26.2036 25.7312L32.5341 39.2248L33.1392 40.5146L33.5181 41.3254L33.9167 42.1708L34.8799 44.2235L35.2824 45.086L35.8206 46.2273C35.5231 46.371 35.1904 46.4497 34.8387 46.4497C34.5762 46.4497 34.3256 46.4059 34.0944 46.3252ZM24.84 20.7264C22.1586 21.9707 20.9995 25.1407 22.2489 27.8048L30.1284 44.6002L30.5023 45.395C30.7036 45.8257 30.9569 46.2164 31.2495 46.566C31.4782 46.837 31.7316 47.084 32.0072 47.3013C32.2606 47.5048 32.5362 47.6827 32.8196 47.835C32.8288 47.8401 32.8337 47.8428 32.8386 47.8459C32.8608 47.8589 32.8827 47.8668 32.9049 47.8777C32.9761 47.9137 33.049 47.9434 33.1234 47.9705C33.5893 48.1597 34.0993 48.2633 34.6311 48.2633C34.8165 48.2633 34.9991 48.2493 35.1763 48.2253C36.5399 48.0433 37.6882 47.1832 38.2665 45.9964C38.2965 45.9365 38.3264 45.875 38.3546 45.8103L38.608 45.2704L40.4217 41.4069L40.4376 41.3713L48.4894 24.2105C49.177 22.7462 50.7722 21.9925 52.2972 22.3042C52.5587 22.3559 52.8149 22.4376 53.0655 22.5543C53.352 22.6867 53.6086 22.8519 53.838 23.0442C54.6145 23.7004 55.0543 24.6628 55.0543 25.6577C55.0543 26.1435 54.9503 26.6337 54.7297 27.1028L44.234 49.4693C44.2372 49.4723 44.24 49.4775 44.24 49.4802L43.0259 52.067V52.0697L42.7101 52.7393C42.672 52.8176 42.6329 52.8936 42.5949 52.9692C41.589 54.8707 39.5681 55.9323 37.5169 55.8057C36.9819 55.7728 36.4497 55.6592 35.9299 55.4581C36.1392 55.716 36.3817 55.9463 36.6492 56.1495C36.6492 56.1495 36.6523 56.1495 36.6552 56.1522C36.8346 56.2638 37.0259 56.3664 37.2254 56.4591C37.8464 56.7462 38.496 56.9063 39.142 56.9473C39.1452 56.9487 39.148 56.9473 39.148 56.9473C39.1501 56.9487 39.1533 56.9487 39.1561 56.9473C39.1592 56.9487 39.161 56.9487 39.1642 56.9473C39.167 56.9487 39.1691 56.9487 39.1723 56.9473H39.1751C39.9769 56.999 40.7702 56.8656 41.5019 56.5696C41.5449 56.5539 41.5858 56.5347 41.6298 56.5159C41.632 56.5159 41.6351 56.5128 41.6379 56.5128C42.7911 56.011 43.7734 55.1057 44.3464 53.8833L56.4944 27.9861C56.8348 27.2571 56.9994 26.4931 56.9994 25.7391C56.9994 23.9888 56.1253 22.3042 54.6095 21.3011C54.41 21.1708 54.2007 21.0521 53.9793 20.9467C53.9554 20.9327 53.9272 20.9186 53.9032 20.9077C53.5455 20.7424 53.1807 20.621 52.8089 20.5392C50.4063 19.9993 47.8673 21.1739 46.7821 23.4863L39.4148 39.1889L38.3265 36.8745L36.9689 33.975V33.9733L35.9838 31.8743H35.981L31.961 23.3022C31.0532 21.3641 29.1193 20.2275 27.1005 20.2275C26.3432 20.2275 25.5734 20.388 24.84 20.7264Z" fill="white"/>
</mask>
<g mask="url(#mask1_1969_1756)">
<path d="M57 20H21V57H57V20Z" fill="white"/>
</g>
</g>
<defs>
<clipPath id="clip0_1969_1756">
<rect width="36" height="37" fill="white" transform="translate(21 20)"/>
</clipPath>
</defs>
</svg>
