<svg width="171" height="38" viewBox="0 0 171 38" fill="none" xmlns="http://www.w3.org/2000/svg">
<mask id="mask0_1969_2279" style="mask-type:luminance" maskUnits="userSpaceOnUse" x="10" y="6" width="17" height="25">
<path d="M25.4028 6.58599L16.5579 25.5502L16.2779 26.1521C15.2293 28.4009 12.312 29.3516 10.0547 28.3532C10.6354 29.4299 12.0388 30.1997 13.3471 30.1997C13.3795 30.1997 13.4142 30.1997 13.4465 30.1971C13.4584 30.1971 13.4695 30.1971 13.4815 30.1945C13.7935 30.1743 14.0999 30.1179 14.3982 30.0346C14.4077 30.032 14.4146 30.0305 14.4212 30.0279C14.4416 30.0212 14.4604 30.0142 14.4792 30.0092C15.6742 29.6502 16.7162 28.8014 17.2849 27.5784L26.7754 7.2273C26.7781 7.22293 26.7796 7.21795 26.7796 7.21358C26.8266 7.11425 26.8469 7.00936 26.8469 6.90563C26.8469 6.62077 26.6854 6.3479 26.4099 6.21757C26.3066 6.16996 26.198 6.14746 26.0912 6.14746C25.8049 6.14744 25.5309 6.3096 25.4028 6.58599Z" fill="white"/>
</mask>
<g mask="url(#mask0_1969_2279)">
<path d="M26.8469 6.14746H10.0547V30.2H26.8469V6.14746Z" fill="url(#paint0_radial_1969_2279)"/>
</g>
<mask id="mask1_1969_2279" style="mask-type:luminance" maskUnits="userSpaceOnUse" x="0" y="2" width="31" height="32">
<path d="M11.0525 24.7426C11.0429 24.7402 11.0363 24.735 11.0267 24.7332C11.0031 24.7262 10.9825 24.7169 10.9597 24.7052C10.9436 24.7008 10.9247 24.6915 10.9086 24.6847C10.8619 24.666 10.8158 24.6421 10.7716 24.6175C10.7605 24.6123 10.7488 24.6056 10.7369 24.5988C10.7189 24.5869 10.7003 24.5784 10.6842 24.569C10.172 24.2786 9.74179 23.8351 9.47552 23.2607L9.369 23.0337L8.53728 21.2509L8.53309 21.2416L2.51125 8.32695C1.83062 6.86436 2.46278 5.12539 3.92575 4.4426C4.32366 4.25708 4.7431 4.16854 5.15718 4.16854C6.25695 4.16854 7.31336 4.79115 7.8085 5.85697L11.7582 14.3257L12.5945 16.1178L13.7496 18.5957L14.6708 20.5722L14.4069 21.1396L13.5922 22.8858L13.4764 23.1359L12.6028 21.2646L12.5544 21.1556L11.8067 19.5517L11.3995 18.6807L10.5633 16.8868L5.72711 6.51435C5.59935 6.23883 5.3265 6.07727 5.04138 6.07727C4.93278 6.07727 4.82389 6.10006 4.72006 6.14855C4.33981 6.32385 4.17556 6.77642 4.35416 7.15564L9.728 18.679L10.2417 19.7804L10.5633 20.4729L10.9017 21.1948L11.7193 22.9478L12.061 23.6843L12.5178 24.659C12.2653 24.7817 11.9829 24.8489 11.6843 24.8489C11.4615 24.8489 11.2487 24.8115 11.0525 24.7426ZM3.19665 2.88155C0.920515 3.94416 -0.0634876 6.65136 0.997099 8.92647L7.68581 23.2695L8.00325 23.9482C8.17408 24.316 8.38919 24.6497 8.6375 24.9483C8.83167 25.1797 9.04677 25.3906 9.28073 25.5762C9.49584 25.75 9.72979 25.9019 9.97034 26.0319C9.97812 26.0363 9.98231 26.0386 9.98649 26.0413C10.0053 26.0524 10.0239 26.0591 10.0427 26.0684C10.1032 26.0991 10.1651 26.1245 10.2282 26.1476C10.6237 26.3092 11.0567 26.3977 11.5081 26.3977C11.6655 26.3977 11.8204 26.3857 11.9709 26.3653C13.1285 26.2099 14.1032 25.4754 14.5941 24.4618C14.6195 24.4107 14.645 24.3581 14.6689 24.3029L14.884 23.8419L16.4236 20.5424L16.437 20.512L23.2721 5.85698C23.8558 4.60651 25.2099 3.96288 26.5044 4.22903C26.7264 4.27314 26.9439 4.34297 27.1566 4.4426C27.3998 4.55567 27.6176 4.69679 27.8124 4.86098C28.4715 5.42135 28.8448 6.24322 28.8448 7.09284C28.8448 7.50771 28.7566 7.92639 28.5693 8.32695L19.6598 27.4276C19.6625 27.4302 19.6649 27.4346 19.6649 27.4369L18.6342 29.646V29.6483L18.3662 30.2201C18.3338 30.287 18.3006 30.3519 18.2683 30.4165C17.4145 32.0403 15.699 32.9469 13.9578 32.8388C13.5036 32.8108 13.0519 32.7138 12.6106 32.542C12.7883 32.7623 12.9941 32.9589 13.2212 33.1324C13.2212 33.1324 13.2239 33.1324 13.2263 33.1348C13.3786 33.23 13.541 33.3177 13.7103 33.3968C14.2375 33.642 14.7889 33.7787 15.3373 33.8138C15.34 33.8149 15.3424 33.8138 15.3424 33.8138C15.3442 33.8149 15.3468 33.8149 15.3492 33.8138C15.3519 33.8149 15.3534 33.8149 15.3561 33.8138C15.3585 33.8149 15.3603 33.8149 15.363 33.8138H15.3654C16.046 33.8579 16.7194 33.7439 17.3405 33.4912C17.377 33.4778 17.4118 33.4614 17.4491 33.4453C17.4509 33.4453 17.4536 33.4427 17.456 33.4427C18.4349 33.0141 19.2687 32.241 19.7552 31.1971L30.0673 9.08132C30.3563 8.45872 30.496 7.80631 30.496 7.16238C30.496 5.66766 29.754 4.22903 28.4673 3.3724C28.2979 3.26109 28.1202 3.15971 27.9323 3.06973C27.912 3.05774 27.8881 3.04576 27.8677 3.03641C27.564 2.8953 27.2544 2.79157 26.9388 2.72176C24.8993 2.26071 22.744 3.26373 21.8228 5.23848L15.5688 18.6483L14.6449 16.6718L13.4926 14.1957V14.1942L12.6564 12.4018H12.654L9.24154 5.08126C8.47086 3.42614 6.82927 2.45557 5.11558 2.45557C4.47266 2.45558 3.81926 2.5926 3.19665 2.88155Z" fill="white"/>
</mask>
<g mask="url(#mask1_1969_2279)">
<path d="M30.497 2.26074H-0.0625V33.8582H30.497V2.26074Z" fill="url(#paint1_radial_1969_2279)"/>
</g>
<mask id="mask2_1969_2279" style="mask-type:luminance" maskUnits="userSpaceOnUse" x="55" y="0" width="25" height="26">
<path d="M72.1909 0L67.5061 16.0601C66.7286 13.2518 62.2574 0 62.2574 0H55.457L64.984 25.9096H70.4405L79.7368 0H72.1909Z" fill="white"/>
</mask>
<g mask="url(#mask2_1969_2279)">
<path d="M79.7368 0.000488281H55.457V25.9101H79.7368V0.000488281Z" fill="url(#paint2_radial_1969_2279)"/>
</g>
<mask id="mask3_1969_2279" style="mask-type:luminance" maskUnits="userSpaceOnUse" x="83" y="0" width="21" height="26">
<path d="M89.2296 4.71644H90.3276C94.6731 4.71644 97.6102 6.64619 97.6102 12.8425C97.6102 19.0387 94.6731 21.1931 90.3276 21.1931H89.2296V4.71644ZM83.4375 0V25.9096H91.004C98.5041 25.9096 103.545 21.7477 103.545 12.8424C103.545 3.93721 98.5041 0 90.6797 0H83.4375Z" fill="white"/>
</mask>
<g mask="url(#mask3_1969_2279)">
<path d="M103.545 0H83.4375V25.9099H103.545V0Z" fill="url(#paint3_radial_1969_2279)"/>
</g>
<mask id="mask4_1969_2279" style="mask-type:luminance" maskUnits="userSpaceOnUse" x="109" y="0" width="17" height="26">
<path d="M109.133 0V25.9096H125.578V20.9968H114.925V15.0276H125.578V10.1148H114.925V4.91277H125.578V0H109.133Z" fill="white"/>
</mask>
<g mask="url(#mask4_1969_2279)">
<path d="M125.578 0.000488281H109.133V25.9098H125.578V0.000488281Z" fill="url(#paint4_radial_1969_2279)"/>
</g>
<mask id="mask5_1969_2279" style="mask-type:luminance" maskUnits="userSpaceOnUse" x="150" y="0" width="21" height="26">
<path d="M164.919 0V9.98477H156.288V0H150.637V25.9096H156.288V15.093H164.919V25.9096H170.571V0H164.919Z" fill="white"/>
</mask>
<g mask="url(#mask5_1969_2279)">
<path d="M170.571 0H150.637V25.9096H170.571V0Z" fill="url(#paint5_radial_1969_2279)"/>
</g>
<mask id="mask6_1969_2279" style="mask-type:luminance" maskUnits="userSpaceOnUse" x="128" y="0" width="20" height="26">
<path d="M129.562 7.45257C129.562 11.0862 132.077 13.2144 134.731 14.2682L138.061 15.6545C140.299 16.5518 141.755 17.0569 141.755 18.6314C141.755 20.1156 140.572 21.0453 138.155 21.0453C136.046 21.0453 133.684 19.9795 131.862 18.4322L128.535 22.311C131.149 24.6942 134.692 25.9256 138.025 25.9256C144.13 25.9256 147.677 22.3279 147.677 18.1756C147.677 14.6416 145.724 12.6078 142.595 11.3737L139.33 10.0826C137.094 9.21404 135.419 8.65688 135.419 7.12272C135.419 5.69287 136.69 4.88152 138.687 4.88152C140.712 4.88152 142.316 5.57629 144.004 6.83902L146.928 3.27723C144.722 1.13476 141.637 0 138.687 0C133.354 0 129.562 3.30879 129.562 7.45257Z" fill="white"/>
</mask>
<g mask="url(#mask6_1969_2279)">
<path d="M147.677 0.000488281H128.535V25.9258H147.677V0.000488281Z" fill="url(#paint6_radial_1969_2279)"/>
</g>
<mask id="mask7_1969_2279" style="mask-type:luminance" maskUnits="userSpaceOnUse" x="64" y="28" width="6" height="9">
<path d="M64.8711 28.2471V36.6556H69.6478V35.6988H66.0098V28.2471H64.8711Z" fill="white"/>
</mask>
<g mask="url(#mask7_1969_2279)">
<path d="M69.6478 28.2476H64.8711V36.6561H69.6478V28.2476Z" fill="url(#paint7_radial_1969_2279)"/>
</g>
<mask id="mask8_1969_2279" style="mask-type:luminance" maskUnits="userSpaceOnUse" x="70" y="28" width="2" height="9">
<path d="M71.9896 28.2471H70.8516V36.6556H71.9896V28.2471Z" fill="white"/>
</mask>
<g mask="url(#mask8_1969_2279)">
<path d="M71.9896 28.2471H70.8516V36.6556H71.9896V28.2471Z" fill="url(#paint8_radial_1969_2279)"/>
</g>
<mask id="mask9_1969_2279" style="mask-type:luminance" maskUnits="userSpaceOnUse" x="73" y="28" width="8" height="9">
<path d="M79.9691 28.2471C79.8713 28.2471 79.7896 28.2751 79.7232 28.3321C79.6558 28.3882 79.6092 28.4504 79.5819 28.5167L77.2175 34.4492C77.1622 34.5818 77.1146 34.7264 77.0727 34.883C77.0321 35.0396 76.9937 35.2021 76.9587 35.3704C76.9162 35.2021 76.8711 35.0396 76.8271 34.883C76.7819 34.7264 76.7317 34.5818 76.6772 34.4492L74.3009 28.5167C74.2694 28.4385 74.2228 28.3739 74.1596 28.3236C74.0968 28.2725 74.0151 28.2471 73.9131 28.2471H73.0039L76.4307 36.6556H77.4572L80.8843 28.2471H79.9691Z" fill="white"/>
</mask>
<g mask="url(#mask9_1969_2279)">
<path d="M80.8843 28.2471H73.0039V36.6556H80.8843V28.2471Z" fill="url(#paint9_radial_1969_2279)"/>
</g>
<mask id="mask10_1969_2279" style="mask-type:luminance" maskUnits="userSpaceOnUse" x="81" y="28" width="6" height="9">
<path d="M81.6992 28.2471V36.6556H86.8807V35.7286H82.843V32.8586H86.1118V31.9672H82.843V29.1741H86.8807V28.2471H81.6992Z" fill="white"/>
</mask>
<g mask="url(#mask10_1969_2279)">
<path d="M86.8807 28.2471H81.6992V36.6556H86.8807V28.2471Z" fill="url(#paint10_radial_1969_2279)"/>
</g>
<mask id="mask11_1969_2279" style="mask-type:luminance" maskUnits="userSpaceOnUse" x="94" y="28" width="8" height="9">
<path d="M100.361 28.2432C100.263 28.2432 100.184 28.2721 100.124 28.3282C100.063 28.3852 100.015 28.4448 99.98 28.5079L98.0614 31.7755C97.983 31.909 97.9183 32.0358 97.8672 32.1573C97.8163 32.2791 97.7694 32.3998 97.7269 32.5214C97.6835 32.4042 97.6359 32.2841 97.5824 32.1635C97.5297 32.0419 97.4642 31.9125 97.3858 31.7755L95.4612 28.5079C95.4187 28.4328 95.3676 28.3709 95.3089 28.3197C95.2503 28.2689 95.1701 28.2432 95.0681 28.2432H94.0703L97.1521 33.3073V36.6517H98.2839V33.3073L101.371 28.2432H100.361V28.2432Z" fill="white"/>
</mask>
<g mask="url(#mask11_1969_2279)">
<path d="M101.371 28.2437H94.0703V36.6522H101.371V28.2437Z" fill="url(#paint11_radial_1969_2279)"/>
</g>
<mask id="mask12_1969_2279" style="mask-type:luminance" maskUnits="userSpaceOnUse" x="101" y="28" width="9" height="9">
<path d="M104.127 35.5286C103.759 35.3778 103.445 35.161 103.186 34.877C102.926 34.5936 102.725 34.2474 102.584 33.8392C102.443 33.4302 102.373 32.9677 102.373 32.4512C102.373 31.9349 102.443 31.4704 102.584 31.0605C102.725 30.6497 102.926 30.3026 103.186 30.0186C103.445 29.7352 103.759 29.5166 104.127 29.3644C104.495 29.2113 104.904 29.1357 105.354 29.1357C105.807 29.1357 106.218 29.2113 106.585 29.3644C106.954 29.5166 107.267 29.7352 107.524 30.0186C107.783 30.3026 107.982 30.6497 108.123 31.0605C108.263 31.4704 108.334 31.9349 108.334 32.4512C108.334 32.9677 108.263 33.4302 108.123 33.8392C107.982 34.2474 107.783 34.5936 107.524 34.877C107.267 35.161 106.954 35.3778 106.585 35.5286C106.218 35.679 105.807 35.7547 105.354 35.7547C104.904 35.7547 104.495 35.679 104.127 35.5286ZM103.664 28.4672C103.155 28.6781 102.719 28.9741 102.355 29.356C101.991 29.737 101.709 30.1913 101.51 30.7169C101.31 31.2434 101.211 31.821 101.211 32.4512C101.211 33.0805 101.31 33.659 101.51 34.1846C101.709 34.7111 101.991 35.1636 102.355 35.5437C102.719 35.923 103.155 36.2175 103.664 36.4267C104.172 36.6359 104.736 36.7405 105.354 36.7405C105.972 36.7405 106.536 36.6359 107.046 36.4267C107.557 36.2175 107.994 35.923 108.358 35.5437C108.722 35.1636 109.004 34.7111 109.203 34.1846C109.402 33.659 109.502 33.0805 109.502 32.4512C109.502 31.821 109.402 31.2434 109.203 30.7169C109.004 30.1913 108.722 29.737 108.358 29.356C107.994 28.9741 107.557 28.6781 107.046 28.4672C106.536 28.2557 105.972 28.1499 105.354 28.1499C104.736 28.1499 104.172 28.2557 103.664 28.4672Z" fill="white"/>
</mask>
<g mask="url(#mask12_1969_2279)">
<path d="M109.502 28.1504H101.211V36.7407H109.502V28.1504Z" fill="url(#paint12_radial_1969_2279)"/>
</g>
<mask id="mask13_1969_2279" style="mask-type:luminance" maskUnits="userSpaceOnUse" x="110" y="28" width="8" height="9">
<path d="M116.274 28.2432V33.3543C116.274 33.7064 116.224 34.0295 116.124 34.322C116.024 34.6165 115.88 34.868 115.689 35.079C115.5 35.2908 115.268 35.455 114.994 35.5724C114.721 35.6899 114.41 35.7486 114.061 35.7486C113.713 35.7486 113.401 35.689 113.126 35.5698C112.849 35.45 112.617 35.2849 112.427 35.0737C112.238 34.8619 112.093 34.6103 111.993 34.3161C111.893 34.0237 111.843 33.7002 111.843 33.3482V28.2432H110.711V33.3543C110.711 33.8396 110.788 34.2898 110.943 34.7041C111.097 35.1181 111.319 35.4781 111.608 35.7808C111.898 36.0835 112.251 36.3219 112.665 36.4937C113.08 36.6663 113.545 36.7522 114.061 36.7522C114.578 36.7522 115.044 36.6663 115.458 36.4937C115.873 36.3219 116.224 36.0835 116.512 35.7808C116.798 35.4781 117.019 35.1181 117.174 34.7041C117.329 34.2898 117.406 33.8396 117.406 33.3543V28.2432H116.274V28.2432Z" fill="white"/>
</mask>
<g mask="url(#mask13_1969_2279)">
<path d="M117.406 28.2437H110.711V36.7524H117.406V28.2437Z" fill="url(#paint13_radial_1969_2279)"/>
</g>
<mask id="mask14_1969_2279" style="mask-type:luminance" maskUnits="userSpaceOnUse" x="118" y="28" width="8" height="9">
<path d="M119.925 29.1413H121.17C121.823 29.1413 122.314 29.2681 122.645 29.5226C122.975 29.7767 123.141 30.1545 123.141 30.6553C123.141 30.9022 123.098 31.1265 123.012 31.3299C122.926 31.5332 122.797 31.7079 122.627 31.8546C122.457 32.0019 122.246 32.1158 121.994 32.1956C121.742 32.2756 121.448 32.3157 121.117 32.3157H119.925V29.1413H119.925ZM118.793 28.2432V36.6517H119.925V33.1434H120.788C120.944 33.1434 121.062 33.1635 121.14 33.2044C121.218 33.2462 121.29 33.3134 121.357 33.4069L123.54 36.4118C123.638 36.572 123.79 36.6517 123.997 36.6517H125.006L122.554 33.3134C122.444 33.1568 122.319 33.0379 122.179 32.9552C122.503 32.8813 122.794 32.7714 123.05 32.6268C123.306 32.4825 123.523 32.3072 123.702 32.1012C123.879 31.8964 124.015 31.6641 124.109 31.4064C124.203 31.1479 124.249 30.8706 124.249 30.5729C124.249 30.2164 124.189 29.8959 124.068 29.6076C123.947 29.3201 123.759 29.0749 123.508 28.871C123.255 28.6685 122.936 28.512 122.548 28.405C122.161 28.2978 121.701 28.2432 121.17 28.2432H118.793Z" fill="white"/>
</mask>
<g mask="url(#mask14_1969_2279)">
<path d="M125.006 28.2437H118.793V36.6522H125.006V28.2437Z" fill="url(#paint14_radial_1969_2279)"/>
</g>
<mask id="mask15_1969_2279" style="mask-type:luminance" maskUnits="userSpaceOnUse" x="132" y="28" width="8" height="9">
<path d="M133.245 29.1683H135.247C135.697 29.1683 136.105 29.2422 136.473 29.3909C136.841 29.5399 137.154 29.7549 137.412 30.0366C137.67 30.3182 137.87 30.6627 138.01 31.0691C138.152 31.4758 138.222 31.9374 138.222 32.454C138.222 32.9702 138.152 33.4319 138.01 33.8394C137.87 34.2458 137.67 34.5888 137.412 34.8684C137.154 35.1483 136.841 35.3628 136.473 35.5115C136.105 35.6605 135.697 35.7344 135.247 35.7344H133.245V29.1683ZM132.102 28.2471V36.6556H135.247C135.864 36.6556 136.428 36.5551 136.937 36.3535C137.445 36.1519 137.881 35.8671 138.245 35.4998C138.609 35.1323 138.891 34.6899 139.09 34.1737C139.289 33.6574 139.389 33.0842 139.389 32.454C139.389 31.8243 139.289 31.2511 139.09 30.7349C138.891 30.2186 138.609 29.7754 138.245 29.4055C137.881 29.0362 137.445 28.7505 136.937 28.5489C136.428 28.3473 135.864 28.2471 135.247 28.2471H132.102V28.2471Z" fill="white"/>
</mask>
<g mask="url(#mask15_1969_2279)">
<path d="M139.389 28.2471H132.102V36.6556H139.389V28.2471Z" fill="url(#paint15_radial_1969_2279)"/>
</g>
<mask id="mask16_1969_2279" style="mask-type:luminance" maskUnits="userSpaceOnUse" x="140" y="28" width="7" height="9">
<path d="M141.503 29.1443H142.747C143.401 29.1443 143.892 29.272 144.223 29.5262C144.553 29.7807 144.718 30.1573 144.718 30.6583C144.718 30.9049 144.676 31.1305 144.59 31.3329C144.504 31.5369 144.376 31.7113 144.205 31.8586C144.035 32.0046 143.825 32.1189 143.572 32.1986C143.319 32.2796 143.027 32.3193 142.695 32.3193H141.503V29.1443H141.503ZM140.371 28.2471V36.6556H141.503V33.1461H142.366C142.522 33.1461 142.639 33.1666 142.718 33.2083C142.796 33.2492 142.868 33.3165 142.935 33.4108L145.118 36.4149C145.216 36.5756 145.368 36.6556 145.576 36.6556H146.584L144.132 33.3165C144.023 33.1607 143.897 33.0407 143.756 32.9591C144.081 32.8843 144.371 32.7745 144.628 32.6299C144.884 32.4852 145.101 32.3102 145.279 32.1051C145.457 31.8991 145.593 31.668 145.687 31.4092C145.781 31.1518 145.827 30.8736 145.827 30.5768C145.827 30.2203 145.767 29.8987 145.646 29.6112C145.525 29.3237 145.338 29.078 145.086 28.8746C144.833 28.6716 144.513 28.5159 144.126 28.4078C143.739 28.3005 143.279 28.2471 142.747 28.2471H140.371V28.2471Z" fill="white"/>
</mask>
<g mask="url(#mask16_1969_2279)">
<path d="M146.584 28.2476H140.371V36.6558H146.584V28.2476Z" fill="url(#paint16_radial_1969_2279)"/>
</g>
<mask id="mask17_1969_2279" style="mask-type:luminance" maskUnits="userSpaceOnUse" x="147" y="28" width="6" height="9">
<path d="M147.547 28.2471V36.6556H152.727V35.7286H148.691V32.8586H151.959V31.9672H148.691V29.1741H152.727V28.2471H147.547Z" fill="white"/>
</mask>
<g mask="url(#mask17_1969_2279)">
<path d="M152.727 28.2471H147.547V36.6559H152.727V28.2471Z" fill="url(#paint17_radial_1969_2279)"/>
</g>
<mask id="mask18_1969_2279" style="mask-type:luminance" maskUnits="userSpaceOnUse" x="153" y="28" width="9" height="9">
<path d="M156.832 30.119C156.871 30.017 156.911 29.8987 156.952 29.7637C156.994 29.6284 157.035 29.4812 157.079 29.3205C157.16 29.6378 157.245 29.9013 157.331 30.1122L158.651 33.5341H155.512L156.832 30.119ZM156.504 28.2471L153.141 36.6556H154.022C154.119 36.6556 154.201 36.6284 154.268 36.5729C154.334 36.5186 154.381 36.4558 154.409 36.3851L155.195 34.3548H158.968L159.755 36.3851C159.785 36.4642 159.833 36.5279 159.895 36.5791C159.958 36.6299 160.04 36.6556 160.142 36.6556H161.022L157.66 28.2471H156.504Z" fill="white"/>
</mask>
<g mask="url(#mask18_1969_2279)">
<path d="M161.022 28.2471H153.141V36.6556H161.022V28.2471Z" fill="url(#paint18_radial_1969_2279)"/>
</g>
<mask id="mask19_1969_2279" style="mask-type:luminance" maskUnits="userSpaceOnUse" x="161" y="28" width="10" height="9">
<path d="M169.729 28.2471C169.627 28.2471 169.55 28.2564 169.495 28.276C169.44 28.2956 169.386 28.3508 169.337 28.4411L166.49 33.6098C166.435 33.7118 166.387 33.8123 166.344 33.9125C166.301 34.0121 166.26 34.1167 166.221 34.2263C166.181 34.1211 166.142 34.0162 166.1 33.9125C166.059 33.8087 166.011 33.7091 165.956 33.6156L163.052 28.4411C163.001 28.3508 162.948 28.2956 162.893 28.276C162.838 28.2564 162.761 28.2471 162.659 28.2471H161.82V36.6556H162.817V30.4763C162.817 30.3948 162.814 30.3045 162.808 30.2066C162.803 30.1087 162.794 30.0094 162.782 29.9072L165.728 35.1825C165.825 35.3584 165.962 35.446 166.138 35.446H166.303C166.479 35.446 166.616 35.3584 166.713 35.1825L169.594 29.9253C169.586 30.0228 169.581 30.119 169.577 30.2125C169.573 30.3062 169.571 30.3948 169.571 30.4763V36.6556H170.569V28.2471H169.729V28.2471Z" fill="white"/>
</mask>
<g mask="url(#mask19_1969_2279)">
<path d="M170.569 28.2476H161.82V36.6561H170.569V28.2476Z" fill="url(#paint19_radial_1969_2279)"/>
</g>
<mask id="mask20_1969_2279" style="mask-type:luminance" maskUnits="userSpaceOnUse" x="43" y="0" width="1" height="38">
<path d="M43.762 0H43.2031V37.501H43.762V0Z" fill="white"/>
</mask>
<g mask="url(#mask20_1969_2279)">
<path d="M43.762 0.000488281H43.2031V37.5015H43.762V0.000488281Z" fill="url(#paint20_radial_1969_2279)"/>
</g>
<defs>
<radialGradient id="paint0_radial_1969_2279" cx="0" cy="0" r="1" gradientUnits="userSpaceOnUse" gradientTransform="translate(18.4506 18.1707) scale(10.3715)">
<stop stop-color="#F06098"/>
<stop offset="1" stop-color="#EE478F"/>
</radialGradient>
<radialGradient id="paint1_radial_1969_2279" cx="0" cy="0" r="1" gradientUnits="userSpaceOnUse" gradientTransform="translate(15.5355 18.1605) scale(15.3269 15.3269)">
<stop stop-color="#F06098"/>
<stop offset="1" stop-color="#EE478F"/>
</radialGradient>
<radialGradient id="paint2_radial_1969_2279" cx="0" cy="0" r="1" gradientUnits="userSpaceOnUse" gradientTransform="translate(67.5957 12.9375) scale(12.5536 12.5536)">
<stop stop-color="#F06098"/>
<stop offset="1" stop-color="#EE478F"/>
</radialGradient>
<radialGradient id="paint3_radial_1969_2279" cx="0" cy="0" r="1" gradientUnits="userSpaceOnUse" gradientTransform="translate(93.4929 12.9809) scale(11.5958 11.5958)">
<stop stop-color="#F06098"/>
<stop offset="1" stop-color="#EE478F"/>
</radialGradient>
<radialGradient id="paint4_radial_1969_2279" cx="0" cy="0" r="1" gradientUnits="userSpaceOnUse" gradientTransform="translate(117.351 12.9042) scale(10.8495 10.8495)">
<stop stop-color="#F06098"/>
<stop offset="1" stop-color="#EE478F"/>
</radialGradient>
<radialGradient id="paint5_radial_1969_2279" cx="0" cy="0" r="1" gradientUnits="userSpaceOnUse" gradientTransform="translate(160.606 12.9907) scale(11.5576)">
<stop stop-color="#F06098"/>
<stop offset="1" stop-color="#EE478F"/>
</radialGradient>
<radialGradient id="paint6_radial_1969_2279" cx="0" cy="0" r="1" gradientUnits="userSpaceOnUse" gradientTransform="translate(138.11 13.0019) scale(11.3935 11.3935)">
<stop stop-color="#F06098"/>
<stop offset="1" stop-color="#EE478F"/>
</radialGradient>
<radialGradient id="paint7_radial_1969_2279" cx="0" cy="0" r="1" gradientUnits="userSpaceOnUse" gradientTransform="translate(67.2579 32.4345) scale(3.41912 3.41912)">
<stop stop-color="#F06098"/>
<stop offset="1" stop-color="#EE478F"/>
</radialGradient>
<radialGradient id="paint8_radial_1969_2279" cx="0" cy="0" r="1" gradientUnits="userSpaceOnUse" gradientTransform="translate(71.4189 32.4303) scale(2.99993 2.99993)">
<stop stop-color="#F06098"/>
<stop offset="1" stop-color="#EE478F"/>
</radialGradient>
<radialGradient id="paint9_radial_1969_2279" cx="0" cy="0" r="1" gradientUnits="userSpaceOnUse" gradientTransform="translate(76.9473 32.4912) scale(4.07437)">
<stop stop-color="#F06098"/>
<stop offset="1" stop-color="#EE478F"/>
</radialGradient>
<radialGradient id="paint10_radial_1969_2279" cx="0" cy="0" r="1" gradientUnits="userSpaceOnUse" gradientTransform="translate(84.2926 32.4842) scale(3.49189)">
<stop stop-color="#F06098"/>
<stop offset="1" stop-color="#EE478F"/>
</radialGradient>
<radialGradient id="paint11_radial_1969_2279" cx="0" cy="0" r="1" gradientUnits="userSpaceOnUse" gradientTransform="translate(97.7193 32.4317) scale(3.93698)">
<stop stop-color="#F06098"/>
<stop offset="1" stop-color="#EE478F"/>
</radialGradient>
<radialGradient id="paint12_radial_1969_2279" cx="0" cy="0" r="1" gradientUnits="userSpaceOnUse" gradientTransform="translate(105.356 32.4358) scale(4.22093)">
<stop stop-color="#F06098"/>
<stop offset="1" stop-color="#EE478F"/>
</radialGradient>
<radialGradient id="paint13_radial_1969_2279" cx="0" cy="0" r="1" gradientUnits="userSpaceOnUse" gradientTransform="translate(114.057 32.4822) scale(3.8279 3.8279)">
<stop stop-color="#F06098"/>
<stop offset="1" stop-color="#EE478F"/>
</radialGradient>
<radialGradient id="paint14_radial_1969_2279" cx="0" cy="0" r="1" gradientUnits="userSpaceOnUse" gradientTransform="translate(121.899 32.4447) scale(3.69646)">
<stop stop-color="#F06098"/>
<stop offset="1" stop-color="#EE478F"/>
</radialGradient>
<radialGradient id="paint15_radial_1969_2279" cx="0" cy="0" r="1" gradientUnits="userSpaceOnUse" gradientTransform="translate(135.743 32.4212) scale(3.93397 3.93397)">
<stop stop-color="#F06098"/>
<stop offset="1" stop-color="#EE478F"/>
</radialGradient>
<radialGradient id="paint16_radial_1969_2279" cx="0" cy="0" r="1" gradientUnits="userSpaceOnUse" gradientTransform="translate(143.478 32.4475) scale(3.69624 3.69624)">
<stop stop-color="#F06098"/>
<stop offset="1" stop-color="#EE478F"/>
</radialGradient>
<radialGradient id="paint17_radial_1969_2279" cx="0" cy="0" r="1" gradientUnits="userSpaceOnUse" gradientTransform="translate(150.136 32.4309) scale(3.49182 3.49183)">
<stop stop-color="#F06098"/>
<stop offset="1" stop-color="#EE478F"/>
</radialGradient>
<radialGradient id="paint18_radial_1969_2279" cx="0" cy="0" r="1" gradientUnits="userSpaceOnUse" gradientTransform="translate(157.084 32.4912) scale(4.07461 4.07461)">
<stop stop-color="#F06098"/>
<stop offset="1" stop-color="#EE478F"/>
</radialGradient>
<radialGradient id="paint19_radial_1969_2279" cx="0" cy="0" r="1" gradientUnits="userSpaceOnUse" gradientTransform="translate(166.191 32.4061) scale(4.29013)">
<stop stop-color="#F06098"/>
<stop offset="1" stop-color="#EE478F"/>
</radialGradient>
<radialGradient id="paint20_radial_1969_2279" cx="0" cy="0" r="1" gradientUnits="userSpaceOnUse" gradientTransform="translate(43.4829 18.7517) scale(13.2598 13.2598)">
<stop stop-color="#F06098"/>
<stop offset="1" stop-color="#EE478F"/>
</radialGradient>
</defs>
</svg>
