<svg width="11" height="15" viewBox="0 0 11 15" fill="none" xmlns="http://www.w3.org/2000/svg">
<path fill-rule="evenodd" clip-rule="evenodd" d="M1.82031 1.07143C1.59019 1.07143 1.40365 1.31128 1.40365 1.60714V13.3929C1.40365 13.6887 1.59019 13.9286 1.82031 13.9286H9.32031C9.55043 13.9286 9.73698 13.6887 9.73698 13.3929V1.60714C9.73698 1.31128 9.55043 1.07143 9.32031 1.07143H1.82031ZM0.570312 1.60714C0.570312 0.719542 1.12996 0 1.82031 0H9.32031C10.0107 0 10.5703 0.719542 10.5703 1.60714V13.3929C10.5703 14.2805 10.0107 15 9.32031 15H1.82031C1.12996 15 0.570312 14.2805 0.570312 13.3929V1.60714Z" fill="#000001"/>
<path fill-rule="evenodd" clip-rule="evenodd" d="M5.56901 2.91683C4.41842 2.91683 3.48568 3.84957 3.48568 5.00016C3.48568 6.15076 4.41842 7.0835 5.56901 7.0835C6.7196 7.0835 7.65234 6.15076 7.65234 5.00016C7.65234 3.84957 6.7196 2.91683 5.56901 2.91683ZM2.65234 5.00016C2.65234 3.38933 3.95818 2.0835 5.56901 2.0835C7.17984 2.0835 8.48568 3.38933 8.48568 5.00016C8.48568 6.61099 7.17984 7.91683 5.56901 7.91683C3.95818 7.91683 2.65234 6.61099 2.65234 5.00016Z" fill="#000001"/>
<path fill-rule="evenodd" clip-rule="evenodd" d="M2.65234 5.00016C2.65234 4.77004 2.83889 4.5835 3.06901 4.5835H8.06901C8.29913 4.5835 8.48568 4.77004 8.48568 5.00016C8.48568 5.23028 8.29913 5.41683 8.06901 5.41683H3.06901C2.83889 5.41683 2.65234 5.23028 2.65234 5.00016Z" fill="#000001"/>
<path fill-rule="evenodd" clip-rule="evenodd" d="M5.56901 2.0835C5.79913 2.0835 5.98568 2.27004 5.98568 2.50016V7.50016C5.98568 7.73028 5.79913 7.91683 5.56901 7.91683C5.33889 7.91683 5.15234 7.73028 5.15234 7.50016V2.50016C5.15234 2.27004 5.33889 2.0835 5.56901 2.0835Z" fill="#000001"/>
<path d="M3.07031 11L8.07031 11" stroke="black" stroke-linecap="round"/>
</svg>
