<svg width="17" height="15" viewBox="0 0 17 15" fill="none" xmlns="http://www.w3.org/2000/svg">
<path fill-rule="evenodd" clip-rule="evenodd" d="M3.37466 3.84761C2.33012 3.84761 1.48336 4.69438 1.48336 5.73892V12.1954C1.48336 13.24 2.33012 14.0867 3.37466 14.0867H13.9399C14.9844 14.0867 15.8312 13.24 15.8312 12.1954V5.73892C15.8312 4.69438 14.9844 3.84761 13.9399 3.84761H3.37466ZM0.570312 5.73892C0.570312 4.19012 1.82586 2.93457 3.37466 2.93457H13.9399C15.4887 2.93457 16.7442 4.19012 16.7442 5.73892V12.1954C16.7442 13.7442 15.4887 14.9998 13.9399 14.9998H3.37466C1.82586 14.9998 0.570312 13.7442 0.570312 12.1954V5.73892Z" fill="#000001"/>
<path fill-rule="evenodd" clip-rule="evenodd" d="M5.13621 2.93457C5.38834 2.93457 5.59273 3.13896 5.59273 3.39109V14.5433C5.59273 14.7954 5.38834 14.9998 5.13621 14.9998C4.88408 14.9998 4.67969 14.7954 4.67969 14.5433V3.39109C4.67969 3.13896 4.88408 2.93457 5.13621 2.93457Z" fill="#000001"/>
<path fill-rule="evenodd" clip-rule="evenodd" d="M12.1792 2.93457C12.4313 2.93457 12.6357 3.13896 12.6357 3.39109V14.5433C12.6357 14.7954 12.4313 14.9998 12.1792 14.9998C11.927 14.9998 11.7227 14.7954 11.7227 14.5433V3.39109C11.7227 3.13896 11.927 2.93457 12.1792 2.93457Z" fill="#000001"/>
<path fill-rule="evenodd" clip-rule="evenodd" d="M8.65693 0.913043C7.99965 0.913043 7.3693 1.17415 6.90453 1.63891C6.43977 2.10367 6.17867 2.73403 6.17867 3.3913C6.17867 3.64343 5.97428 3.84783 5.72215 3.84783C5.47002 3.84783 5.26562 3.64343 5.26562 3.3913C5.26562 2.49187 5.62292 1.62928 6.25892 0.99329C6.89491 0.357297 7.7575 0 8.65693 0C9.55636 0 10.419 0.357297 11.0549 0.99329C11.6909 1.62928 12.0482 2.49187 12.0482 3.3913C12.0482 3.64343 11.8438 3.84783 11.5917 3.84783C11.3396 3.84783 11.1352 3.64343 11.1352 3.3913C11.1352 2.73403 10.8741 2.10367 10.4093 1.63891C9.94456 1.17415 9.31421 0.913043 8.65693 0.913043Z" fill="#000001"/>
</svg>
