<svg width="15" height="17" viewBox="0 0 15 17" fill="none" xmlns="http://www.w3.org/2000/svg">
<path d="M0.746094 6.97967L4.06181 1.67975C4.19031 1.47027 4.37087 1.29764 4.58592 1.17868C4.80096 1.05973 5.04314 0.99849 5.28888 1.00094V1.00094C5.48242 0.993957 5.6754 1.02584 5.8564 1.09471C6.03741 1.16357 6.20278 1.26802 6.34273 1.40189C6.48268 1.53576 6.59437 1.69632 6.67121 1.87409C6.74805 2.05186 6.78847 2.24322 6.79009 2.43688V6.23559H12.5208C12.7325 6.24246 12.9405 6.29407 13.1308 6.38703C13.3212 6.48 13.4898 6.6122 13.6254 6.77496C13.761 6.93772 13.8607 7.12735 13.9178 7.33137C13.9749 7.5354 13.9882 7.7492 13.9567 7.95872L12.9124 14.6946C12.8679 15.0546 12.6934 15.3859 12.4217 15.6263C12.1501 15.8666 11.8 15.9995 11.4373 16H2.87389C2.46624 16.0016 2.06388 15.9077 1.69904 15.7258L0.759148 15.2559" stroke="#000001" stroke-linecap="round" stroke-linejoin="round"/>
</svg>
