<svg width="13" height="6" viewBox="0 0 13 6" fill="none" xmlns="http://www.w3.org/2000/svg">
<path fill-rule="evenodd" clip-rule="evenodd" d="M5.61982 0.459455C5.78625 0.469817 5.9363 0.563243 6.01903 0.708027L8.19199 4.51071L9.64995 2.56677C9.74348 2.44207 9.89026 2.36868 10.0461 2.36868H11.9563C12.2298 2.36868 12.4515 2.5904 12.4515 2.86391C12.4515 3.13742 12.2298 3.35914 11.9563 3.35914H10.2938L8.53214 5.70796C8.43209 5.84136 8.27162 5.91546 8.10518 5.90509C7.93875 5.89473 7.78871 5.80131 7.70597 5.65652L5.53301 1.85384L4.07505 3.79778C3.98153 3.92248 3.83474 3.99587 3.67887 3.99587H0.495232C0.221723 3.99587 0 3.77415 0 3.50064C0 3.22713 0.221723 3.00541 0.495232 3.00541H3.43125L5.19286 0.656591C5.29291 0.523187 5.45339 0.449094 5.61982 0.459455Z" fill="#000001"/>
</svg>
