<svg width="10" height="15" viewBox="0 0 10 15" fill="none" xmlns="http://www.w3.org/2000/svg">
<path fill-rule="evenodd" clip-rule="evenodd" d="M1.25 1.07143C1.01988 1.07143 0.833333 1.31128 0.833333 1.60714V13.3929C0.833333 13.6887 1.01988 13.9286 1.25 13.9286H8.75C8.98012 13.9286 9.16667 13.6887 9.16667 13.3929V1.60714C9.16667 1.31128 8.98012 1.07143 8.75 1.07143H1.25ZM0 1.60714C0 0.719542 0.559644 0 1.25 0H8.75C9.44036 0 10 0.719542 10 1.60714V13.3929C10 14.2805 9.44036 15 8.75 15H1.25C0.559644 15 0 14.2805 0 13.3929V1.60714Z" fill="#000001"/>
</svg>
